<svg class="svg-icon" style="width: 1em; height: 1em;vertical-align: middle;fill: currentColor;overflow: hidden;" viewBox="0 0 1024 1024" version="1.1" xmlns="http://www.w3.org/2000/svg"><path d="M511.999693 0c282.76719 0 511.999693 229.232502 511.999693 511.999693s-229.232502 511.999693-511.999693 511.999693S0 794.766883 0 511.999693 229.232502 0 511.999693 0z" fill="#EFC75E" /><path d="M778.239533 276.479834H296.959822a71.679957 71.679957 0 0 0-71.679957 71.679957v588.082847A509.675214 509.675214 0 0 0 511.999693 1023.999386c129.525682 0 247.736171-48.199651 337.919797-127.518644V348.159791a71.679957 71.679957 0 0 0-71.679957-71.679957z" fill="#2B414D" /><path d="M757.759545 276.479834H276.479834a71.679957 71.679957 0 0 0-71.679957 71.679957v573.449896A509.736654 509.736654 0 0 0 511.999693 1023.999386c119.951288 0 230.174582-41.359335 317.439809-110.438334V348.159791a71.679957 71.679957 0 0 0-71.679957-71.679957z" fill="#CCD0D2" /><path d="M727.039564 255.989606H255.999846a71.679957 71.679957 0 0 0-71.679957 71.679957v577.679014C273.110876 979.404212 387.338008 1023.999386 511.999693 1023.999386a509.675214 509.675214 0 0 0 286.719828-87.756748V327.669563a71.679957 71.679957 0 0 0-71.679957-71.679957z" fill="#324D5B" /><path d="M184.319889 327.669563v577.679014a513.177292 513.177292 0 0 0 30.719982 23.603186V327.669563a71.679957 71.679957 0 0 1 71.679957-71.679957h-30.719982a71.679957 71.679957 0 0 0-71.679957 71.679957z" fill="#2D4552" /><path d="M543.508154 666.95128h42.342374c-16.49663-21.749747-41.420775-39.311336-70.543317-45.864933a172.963736 172.963736 0 0 1 28.200943 45.864933m14.725111 68.628439h52.746208a124.108726 124.108726 0 0 0-16.18943-55.039967l-46.172132 0.07168a197.631881 197.631881 0 0 1 9.615354 54.968287m-9.635834 68.546519l46.192612 0.061439a124.026806 124.026806 0 0 0 16.18943-55.029726h-52.746208a196.761482 196.761482 0 0 1-9.635834 54.968287m-5.089277 13.670391a173.465496 173.465496 0 0 1-28.200943 45.864933c29.122543-6.574076 54.046688-24.135666 70.543317-45.864933h-42.342374z m-14.673911 0H493.158104v49.111011c14.540791-12.974072 26.798064-29.747182 35.676139-49.111011m15.90271-68.638678H493.158104v55.029726h41.154535c6.133756-17.18271 9.748474-35.635179 10.424314-55.029726m-10.424314-68.597719H493.158104v55.029727h51.578849a182.067091 182.067091 0 0 0-10.424314-55.029727m-5.478396-13.608952c-8.867835-19.363828-21.125107-36.136938-35.665899-49.121251v49.121251h35.665899z m-84.828109 0h35.655658v-49.121251c-14.520311 12.984312-26.787824 29.757422-35.655658 49.121251m-15.902711 68.628439h51.568609v-55.019487h-41.154535a182.374291 182.374291 0 0 0-10.414074 55.019487m10.414074 68.597718h41.154535V749.157951h-51.568609a182.312851 182.312851 0 0 0 10.414074 55.019486m5.488637 13.619192c8.857595 19.353588 21.125107 36.126698 35.655658 49.111011v-49.111011H444.006134z m-14.673912 0h-42.342374c16.49663 21.729267 41.420775 39.301096 70.553557 45.864933a172.953496 172.953496 0 0 1-28.211183-45.864933m-14.725111-68.638678h-52.746208a123.934646 123.934646 0 0 0 16.18943 55.029726l46.182372-0.061439a196.833162 196.833162 0 0 1-9.625594-54.968287m9.625594-68.546519l-46.182372-0.06144a123.975606 123.975606 0 0 0-16.18943 55.039967h52.746208c0.64512-19.363828 3.993598-37.857257 9.625594-54.978527m-37.242857-13.660152h42.342374a172.472217 172.472217 0 0 1 28.211183-45.864933c-29.132783 6.553596-54.056928 24.115186-70.553557 45.864933m-38.799337 75.417555c0-76.308434 61.890523-138.178477 138.229677-138.178478S624.639625 666.0604 624.639625 742.368835c0 76.318674-61.890523 138.188717-138.219437 138.188717-76.339154 0-138.229677-61.870043-138.229677-138.188717M696.319582 389.109527H286.719828a10.239994 10.239994 0 0 0-10.239994 10.239993v20.479988a10.239994 10.239994 0 0 0 10.239994 10.239994h409.599754a10.239994 10.239994 0 0 0 10.239994-10.239994v-20.479988a10.239994 10.239994 0 0 0-10.239994-10.239993z m-51.199969 81.91995H337.919797a10.239994 10.239994 0 0 0-10.239994 10.239994v20.479988a10.239994 10.239994 0 0 0 10.239994 10.239994h307.199816a10.239994 10.239994 0 0 0 10.239994-10.239994v-20.479988a10.239994 10.239994 0 0 0-10.239994-10.239994z" fill="#99A6AD" /></svg>